inDegrees=yes
name=ik_S46_A05_T01
DataType=double
version=3
OpenSimVersion=4.3-2021-08-27-4bc7ad9
endheader
time	pelvis_tilt	pelvis_list	pelvis_rotation	pelvis_tx	pelvis_ty	pelvis_tz	hip_flexion_r	hip_adduction_r	hip_rotation_r	knee_angle_r	knee_angle_r_beta	ankle_angle_r	subtalar_angle_r	mtp_angle_r	hip_flexion_l	hip_adduction_l	hip_rotation_l	knee_angle_l	knee_angle_l_beta	ankle_angle_l	subtalar_angle_l	mtp_angle_l	lumbar_extension	lumbar_bending	lumbar_rotation	arm_flex_r	arm_add_r	arm_rot_r	elbow_flex_r	pro_sup_r	wrist_flex_r	wrist_dev_r	arm_flex_l	arm_add_l	arm_rot_l	elbow_flex_l	pro_sup_l	wrist_flex_l	wrist_dev_l
14.41999999999978	-6.458350868008282	-6.83557139697054	35.82894864378898	0	0.9399999999999999	0	42.2327897141465	-10.95848942226135	-10.66520330277263	52.16298112893828	0.9104157683556419	0	0	0	42.2327897141465	-10.95848942226135	-10.66520330277263	52.16298112893828	0.9104157683556419	0	0	0	-8.45833147831917	-5.309844663584715	2.746874071200625	62.00369164034843	21.37963088708497	20.83158556384931	51.72795853747379	88.86034014305788	0	0	18.37162120059352	-2.712823037046215	19.11537040194298	55.21759628641615	123.8433369485003	0	0
14.43999999999978	-6.443628374255517	-6.8281547386205	35.6558761399118	0	0.9399999999999999	0	42.23363164358985	-10.95747301929421	-10.66475079080974	52.16356014268582	0.9104258740519507	0	0	0	42.23363164358985	-10.95747301929421	-10.66475079080974	52.16356014268582	0.9104258740519507	0	0	0	-8.433928143326961	-5.327717567185362	2.817839561814655	61.54243685016687	21.3920165379465	19.78836294136881	52.08512376302144	88.39697661835281	0	0	18.28745873136874	-2.734573153772493	19.12979787875391	55.27933988737796	123.7793485486509	0	0
14.45999999999978	-6.440905676930389	-6.818767758782573	35.57696308975925	0	0.9399999999999999	0	42.23438938733736	-10.95655875371935	-10.66434363300936	52.16408126878813	0.9104349694182541	0	0	0	42.23438938733736	-10.95655875371935	-10.66434363300936	52.16408126878813	0.9104349694182541	0	0	0	-8.422921268788896	-5.328221693952668	2.850099597500298	61.38690132682093	21.30758722997704	19.33334037077518	52.18116526651077	88.4225667532862	0	0	18.27488646597525	-2.715481992252835	19.10454216295661	55.32344717088127	123.7373319826947	0	0
14.47999999999978	-6.413744570696421	-6.812998815617371	35.47537732552581	0	0.9399999999999999	0	42.2351744855566	-10.95561481568479	-10.66392270736324	52.1646226798865	0.9104444188245274	0	0	0	42.2351744855566	-10.95561481568479	-10.66392270736324	52.1646226798865	0.9104444188245274	0	0	0	-8.395312075485782	-5.342771172009574	2.865273698939367	61.28488321757958	21.27032556374262	18.98434768793251	51.85638457069851	88.05356424417178	0	0	18.2227186423088	-2.728397846099644	18.94279734082691	55.34285562096741	123.7717957880969	0	0
14.49999999999978	-6.419609894949485	-6.810296204197478	35.40210687671366	0	0.9399999999999999	0	42.23532955289669	-10.95543399945421	-10.66384122264561	52.16473262522656	0.9104463377327088	0	0	0	42.23532955289669	-10.95543399945421	-10.66384122264561	52.16473262522656	0.9104463377327088	0	0	0	-8.399134580801084	-5.335701631809134	2.860161264396189	61.20510655885184	21.21576302222078	18.84478974121327	51.81907391720761	88.02844483335538	0	0	18.26049640480507	-2.712677671359967	18.82283819018109	55.35469350903722	123.7572579242496	0	0
14.51999999999978	-6.401698189820049	-6.797375845943196	35.32991004736569	0	0.9399999999999999	0	42.23628888581834	-10.95428167605353	-10.66332712697289	52.16539427967919	0.9104578857814176	0	0	0	42.23628888581834	-10.95428167605353	-10.66332712697289	52.16539427967919	0.9104578857814176	0	0	0	-8.376848449380057	-5.335344460911701	2.859866152236467	61.12976152372804	21.18952011110725	18.82387455656026	51.44324607831727	87.81829443964507	0	0	18.22264396129576	-2.717024904361157	18.71605813026713	55.41846563162172	123.7463627491073	0	0
14.53999999999978	-6.385068537255369	-6.794642450062614	35.28494738917107	0	0.9399999999999999	0	42.23135207180258	-10.96014026000171	-10.6659622322522	52.16200809448482	0.9103987857006934	0	0	0	42.23135207180258	-10.96014026000171	-10.6659622322522	52.16200809448482	0.9103987857006934	0	0	0	-8.360707186751977	-5.346958089001276	2.85919886296788	61.0774422452202	21.16514633664316	18.86461976516354	51.1902892936538	87.74139615940398	0	0	18.21438891470675	-2.733148754286057	18.66020511104044	55.36078971788734	123.7987995780005	0	0
14.55999999999978	-6.37686168750643	-6.786192199037848	35.26008815064833	0	0.9399999999999999	0	42.23192950937375	-10.95945464758712	-10.66565532303441	52.16241183963564	0.9104058323829143	0	0	0	42.23192950937375	-10.95945464758712	-10.66565532303441	52.16241183963564	0.9104058323829143	0	0	0	-8.349791155845159	-5.343325435230882	2.853021791794227	61.03126915121568	21.14697311612647	19.01725956248272	50.9299121309207	87.61768742686571	0	0	18.22412707593618	-2.720528954220418	18.66587685325861	55.39489922720907	123.7420934402912	0	0
14.57999999999978	-6.366194047318634	-6.790749413609962	35.23699796651008	0	0.9399999999999999	0	42.22806135270513	-10.96415627847207	-10.6677475895995	52.15977100833799	0.9103597411817806	0	0	0	42.22806135270513	-10.96415627847207	-10.6677475895995	52.15977100833799	0.9103597411817806	0	0	0	-8.342659812606989	-5.357114390927129	2.855471846710311	61.03153142771831	21.17074116776152	19.02655661271527	50.74210762435707	87.63658942353661	0	0	18.23672298003413	-2.722011188490016	18.66890487765123	55.35228773643824	123.761643654432	0	0
